<svg width="956" height="1158" viewBox="0 0 956 1158" class="keymap" xmlns="http://www.w3.org/2000/svg" xmlns:xlink="http://www.w3.org/1999/xlink">
<defs>/* start glyphs */
<svg id="mdi:apple-keyboard-command">
<svg xmlns="http://www.w3.org/2000/svg" id="mdi-apple-keyboard-command" viewBox="0 0 24 24"><path d="M6,2A4,4 0 0,1 10,6V8H14V6A4,4 0 0,1 18,2A4,4 0 0,1 22,6A4,4 0 0,1 18,10H16V14H18A4,4 0 0,1 22,18A4,4 0 0,1 18,22A4,4 0 0,1 14,18V16H10V18A4,4 0 0,1 6,22A4,4 0 0,1 2,18A4,4 0 0,1 6,14H8V10H6A4,4 0 0,1 2,6A4,4 0 0,1 6,2M16,18A2,2 0 0,0 18,20A2,2 0 0,0 20,18A2,2 0 0,0 18,16H16V18M14,10H10V14H14V10M6,16A2,2 0 0,0 4,18A2,2 0 0,0 6,20A2,2 0 0,0 8,18V16H6M8,6A2,2 0 0,0 6,4A2,2 0 0,0 4,6A2,2 0 0,0 6,8H8V6M18,8A2,2 0 0,0 20,6A2,2 0 0,0 18,4A2,2 0 0,0 16,6V8H18Z" /></svg>
</svg>
<svg id="mdi:apple-keyboard-control">
<svg xmlns="http://www.w3.org/2000/svg" id="mdi-apple-keyboard-control" viewBox="0 0 24 24"><path d="M19.78,11.78L18.36,13.19L12,6.83L5.64,13.19L4.22,11.78L12,4L19.78,11.78Z" /></svg>
</svg>
<svg id="mdi:apple-keyboard-option">
<svg xmlns="http://www.w3.org/2000/svg" id="mdi-apple-keyboard-option" viewBox="0 0 24 24"><path d="M3,4H9.11L16.15,18H21V20H14.88L7.84,6H3V4M14,4H21V6H14V4Z" /></svg>
</svg>
<svg id="mdi:apple-keyboard-shift">
<svg xmlns="http://www.w3.org/2000/svg" id="mdi-apple-keyboard-shift" viewBox="0 0 24 24"><path d="M15,18V12H17.17L12,6.83L6.83,12H9V18H15M12,4L22,14H17V20H7V14H2L12,4Z" /></svg>
</svg>
<svg id="mdi:arrow-down">
<svg xmlns="http://www.w3.org/2000/svg" id="mdi-arrow-down" viewBox="0 0 24 24"><path d="M11,4H13V16L18.5,10.5L19.92,11.92L12,19.84L4.08,11.92L5.5,10.5L11,16V4Z" /></svg>
</svg>
<svg id="mdi:arrow-left">
<svg xmlns="http://www.w3.org/2000/svg" id="mdi-arrow-left" viewBox="0 0 24 24"><path d="M20,11V13H8L13.5,18.5L12.08,19.92L4.16,12L12.08,4.08L13.5,5.5L8,11H20Z" /></svg>
</svg>
<svg id="mdi:arrow-right">
<svg xmlns="http://www.w3.org/2000/svg" id="mdi-arrow-right" viewBox="0 0 24 24"><path d="M4,11V13H16L10.5,18.5L11.92,19.92L19.84,12L11.92,4.08L10.5,5.5L16,11H4Z" /></svg>
</svg>
<svg id="mdi:arrow-up">
<svg xmlns="http://www.w3.org/2000/svg" id="mdi-arrow-up" viewBox="0 0 24 24"><path d="M13,20H11V8L5.5,13.5L4.08,12.08L12,4.16L19.92,12.08L18.5,13.5L13,8V20Z" /></svg>
</svg>
<svg id="mdi:content-copy">
<svg xmlns="http://www.w3.org/2000/svg" id="mdi-content-copy" viewBox="0 0 24 24"><path d="M19,21H8V7H19M19,5H8A2,2 0 0,0 6,7V21A2,2 0 0,0 8,23H19A2,2 0 0,0 21,21V7A2,2 0 0,0 19,5M16,1H4A2,2 0 0,0 2,3V17H4V3H16V1Z" /></svg>
</svg>
<svg id="mdi:content-cut">
<svg xmlns="http://www.w3.org/2000/svg" id="mdi-content-cut" viewBox="0 0 24 24"><path d="M19,3L13,9L15,11L22,4V3M12,12.5A0.5,0.5 0 0,1 11.5,12A0.5,0.5 0 0,1 12,11.5A0.5,0.5 0 0,1 12.5,12A0.5,0.5 0 0,1 12,12.5M6,20A2,2 0 0,1 4,18C4,16.89 4.9,16 6,16A2,2 0 0,1 8,18C8,19.11 7.1,20 6,20M6,8A2,2 0 0,1 4,6C4,4.89 4.9,4 6,4A2,2 0 0,1 8,6C8,7.11 7.1,8 6,8M9.64,7.64C9.87,7.14 10,6.59 10,6A4,4 0 0,0 6,2A4,4 0 0,0 2,6A4,4 0 0,0 6,10C6.59,10 7.14,9.87 7.64,9.64L10,12L7.64,14.36C7.14,14.13 6.59,14 6,14A4,4 0 0,0 2,18A4,4 0 0,0 6,22A4,4 0 0,0 10,18C10,17.41 9.87,16.86 9.64,16.36L12,14L19,21H22V20L9.64,7.64Z" /></svg>
</svg>
<svg id="mdi:content-paste">
<svg xmlns="http://www.w3.org/2000/svg" id="mdi-content-paste" viewBox="0 0 24 24"><path d="M19,20H5V4H7V7H17V4H19M12,2A1,1 0 0,1 13,3A1,1 0 0,1 12,4A1,1 0 0,1 11,3A1,1 0 0,1 12,2M19,2H14.82C14.4,0.84 13.3,0 12,0C10.7,0 9.6,0.84 9.18,2H5A2,2 0 0,0 3,4V20A2,2 0 0,0 5,22H19A2,2 0 0,0 21,20V4A2,2 0 0,0 19,2Z" /></svg>
</svg>
<svg id="mdi:keyboard-esc">
<svg xmlns="http://www.w3.org/2000/svg" id="mdi-keyboard-esc" viewBox="0 0 24 24"><path d="M1 7H7V9H3V11H7V13H3V15H7V17H1V7M11 7H15V9H11V11H13C14.11 11 15 11.9 15 13V15C15 16.11 14.11 17 13 17H9V15H13V13H11C9.9 13 9 12.11 9 11V9C9 7.9 9.9 7 11 7M19 7H21C22.11 7 23 7.9 23 9V10H21V9H19V15H21V14H23V15C23 16.11 22.11 17 21 17H19C17.9 17 17 16.11 17 15V9C17 7.9 17.9 7 19 7Z" /></svg>
</svg>
<svg id="mdi:keyboard-off">
<svg xmlns="http://www.w3.org/2000/svg" id="mdi-keyboard-off" viewBox="0 0 24 24"><path d="M1,4.27L2.28,3L20,20.72L18.73,22L15.73,19H4C2.89,19 2,18.1 2,17V7C2,6.5 2.18,6.07 2.46,5.73L1,4.27M19,10V8H17V10H19M19,13V11H17V13H19M16,10V8H14V10H16M16,13V11H14V12.18L11.82,10H13V8H11V9.18L9.82,8L6.82,5H20A2,2 0 0,1 22,7V17C22,17.86 21.46,18.59 20.7,18.87L14.82,13H16M8,15V17H13.73L11.73,15H8M5,10H6.73L5,8.27V10M7,13V11H5V13H7M8,13H9.73L8,11.27V13Z" /></svg>
</svg>
<svg id="mdi:keyboard-tab">
<svg xmlns="http://www.w3.org/2000/svg" id="mdi-keyboard-tab" viewBox="0 0 24 24"><path d="M20,18H22V6H20M11.59,7.41L15.17,11H1V13H15.17L11.59,16.58L13,18L19,12L13,6L11.59,7.41Z" /></svg>
</svg>
<svg id="mdi:lightbulb-on-40">
<svg xmlns="http://www.w3.org/2000/svg" id="mdi-lightbulb-on-40" viewBox="0 0 24 24"><path d="M1 11H4V13H1V11M13 1H11V4H13V1M4.9 3.5L3.5 4.9L5.6 7L7 5.6L4.9 3.5M19.1 3.5L17 5.6L18.4 7L20.5 4.9L19.1 3.5M10 22C10 22.6 10.4 23 11 23H13C13.6 23 14 22.6 14 22V21H10V22M20 11V13H23V11H20M18 12C18 14.2 16.8 16.2 15 17.2V19C15 19.6 14.6 20 14 20H10C9.4 20 9 19.6 9 19V17.2C7.2 16.2 6 14.2 6 12C6 8.7 8.7 6 12 6S18 8.7 18 12M16 12C16 9.79 14.21 8 12 8S8 9.79 8 12C8 12.74 8.22 13.41 8.57 14H15.43C15.78 13.41 16 12.74 16 12Z" /></svg>
</svg>
<svg id="mdi:lightbulb-on-70">
<svg xmlns="http://www.w3.org/2000/svg" id="mdi-lightbulb-on-70" viewBox="0 0 24 24"><path d="M7 5.6L5.6 7L3.5 4.9L4.9 3.5L7 5.6M13 1H11V4H13V1M1 13H4V11H1V13M10 22C10 22.6 10.4 23 11 23H13C13.6 23 14 22.6 14 22V21H10V22M19.1 3.5L17 5.6L18.4 7L20.5 4.9L19.1 3.5M18 12C18 14.2 16.8 16.2 15 17.2V19C15 19.6 14.6 20 14 20H10C9.4 20 9 19.6 9 19V17.2C7.2 16.2 6 14.2 6 12C6 8.7 8.7 6 12 6S18 8.7 18 12M8.14 11H15.86C15.41 9.28 13.86 8 12 8S8.59 9.28 8.14 11M20 11V13H23V11H20Z" /></svg>
</svg>
<svg id="mdi:lock">
<svg xmlns="http://www.w3.org/2000/svg" id="mdi-lock" viewBox="0 0 24 24"><path d="M12,17A2,2 0 0,0 14,15C14,13.89 13.1,13 12,13A2,2 0 0,0 10,15A2,2 0 0,0 12,17M18,8A2,2 0 0,1 20,10V20A2,2 0 0,1 18,22H6A2,2 0 0,1 4,20V10C4,8.89 4.9,8 6,8H7V6A5,5 0 0,1 12,1A5,5 0 0,1 17,6V8H18M12,3A3,3 0 0,0 9,6V8H15V6A3,3 0 0,0 12,3Z" /></svg>
</svg>
<svg id="mdi:play-pause">
<svg xmlns="http://www.w3.org/2000/svg" id="mdi-play-pause" viewBox="0 0 24 24"><path d="M3,5V19L11,12M13,19H16V5H13M18,5V19H21V5" /></svg>
</svg>
<svg id="mdi:skip-next">
<svg xmlns="http://www.w3.org/2000/svg" id="mdi-skip-next" viewBox="0 0 24 24"><path d="M16,18H18V6H16M6,18L14.5,12L6,6V18Z" /></svg>
</svg>
<svg id="mdi:skip-previous">
<svg xmlns="http://www.w3.org/2000/svg" id="mdi-skip-previous" viewBox="0 0 24 24"><path d="M6,18V6H8V18H6M9.5,12L18,6V18L9.5,12Z" /></svg>
</svg>
<svg id="mdi:sleep">
<svg xmlns="http://www.w3.org/2000/svg" id="mdi-sleep" viewBox="0 0 24 24"><path d="M23,12H17V10L20.39,6H17V4H23V6L19.62,10H23V12M15,16H9V14L12.39,10H9V8H15V10L11.62,14H15V16M7,20H1V18L4.39,14H1V12H7V14L3.62,18H7V20Z" /></svg>
</svg>
<svg id="mdi:volume-minus">
<svg xmlns="http://www.w3.org/2000/svg" id="mdi-volume-minus" viewBox="0 0 24 24"><path d="M3,9H7L12,4V20L7,15H3V9M14,11H22V13H14V11Z" /></svg>
</svg>
<svg id="mdi:volume-mute">
<svg xmlns="http://www.w3.org/2000/svg" id="mdi-volume-mute" viewBox="0 0 24 24"><path d="M3,9H7L12,4V20L7,15H3V9M16.59,12L14,9.41L15.41,8L18,10.59L20.59,8L22,9.41L19.41,12L22,14.59L20.59,16L18,13.41L15.41,16L14,14.59L16.59,12Z" /></svg>
</svg>
<svg id="mdi:volume-plus">
<svg xmlns="http://www.w3.org/2000/svg" id="mdi-volume-plus" viewBox="0 0 24 24"><path d="M3,9H7L12,4V20L7,15H3V9M14,11H17V8H19V11H22V13H19V16H17V13H14V11Z" /></svg>
</svg>
<svg id="tabler:arrow-back">
<svg xmlns="http://www.w3.org/2000/svg" class="icon icon-tabler icon-tabler-arrow-back" viewBox="0 0 24 24" stroke-width="2" stroke="currentColor" fill="none" stroke-linecap="round" stroke-linejoin="round">
  <path stroke="none" d="M0 0h24v24H0z" fill="none"/>
  <path d="M9 11l-4 4l4 4m-4 -4h11a4 4 0 0 0 0 -8h-1" />
</svg>



</svg>
<svg id="tabler:backspace">
<svg xmlns="http://www.w3.org/2000/svg" class="icon icon-tabler icon-tabler-backspace" viewBox="0 0 24 24" stroke-width="2" stroke="currentColor" fill="none" stroke-linecap="round" stroke-linejoin="round">
  <path stroke="none" d="M0 0h24v24H0z" fill="none"/>
  <path d="M20 6a1 1 0 0 1 1 1v10a1 1 0 0 1 -1 1h-11l-5 -5a1.5 1.5 0 0 1 0 -2l5 -5z" />
  <path d="M12 10l4 4m0 -4l-4 4" />
</svg>



</svg>
<svg id="tabler:repeat">
<svg xmlns="http://www.w3.org/2000/svg" class="icon icon-tabler icon-tabler-repeat" viewBox="0 0 24 24" stroke-width="2" stroke="currentColor" fill="none" stroke-linecap="round" stroke-linejoin="round">
  <path stroke="none" d="M0 0h24v24H0z" fill="none"/>
  <path d="M4 12v-3a3 3 0 0 1 3 -3h13m-3 -3l3 3l-3 3" />
  <path d="M20 12v3a3 3 0 0 1 -3 3h-13m3 3l-3 -3l3 -3" />
</svg>



</svg>
</defs>/* end glyphs */
<style>/* inherit to force styles through use tags */
svg path {
    fill: inherit;
}

/* font and background color specifications */
svg.keymap {
    font-family: SFMono-Regular,Consolas,Liberation Mono,Menlo,monospace;
    font-size: 14px;
    font-kerning: normal;
    text-rendering: optimizeLegibility;
    fill: #24292e;
}

/* default key styling */
rect.key {
    fill: #f6f8fa;
    stroke: #c9cccf;
    stroke-width: 1;
}

/* default key side styling, only used is draw_key_sides is set */
rect.side {
    filter: brightness(90%);
}

/* color accent for combo boxes */
rect.combo, rect.combo-separate {
    fill: #cdf;
}

/* color accent for held keys */
rect.held, rect.combo.held {
    fill: #fdd;
}

/* color accent for ghost (optional) keys */
rect.ghost, rect.combo.ghost {
    stroke-dasharray: 4, 4;
    stroke-width: 2;
}

text {
    text-anchor: middle;
    dominant-baseline: middle;
}

/* styling for layer labels */
text.label {
    font-weight: bold;
    text-anchor: start;
    stroke: white;
    stroke-width: 2;
    paint-order: stroke;
}

/* styling for combo tap, and key hold/shifted label text */
text.combo, text.hold, text.shifted {
    font-size: 11px;
}

text.hold {
    text-anchor: middle;
    dominant-baseline: auto;
}

text.shifted {
    text-anchor: middle;
    dominant-baseline: hanging;
}

/* styling for hold/shifted label text in combo box */
text.combo.hold, text.combo.shifted {
    font-size: 8px;
}

/* lighter symbol for transparent keys */
text.trans {
    fill: #7b7e81;
}

/* styling for combo dendrons */
path.combo {
    stroke-width: 1;
    stroke: gray;
    fill: none;
}

/* Start Tabler Icons Cleanup */
/* cannot use height/width with glyphs */
.icon-tabler > path {
    fill: inherit;
    stroke: inherit;
    stroke-width: 2;
}
/* hide tabler's default box */
.icon-tabler > path[stroke="none"][fill="none"] {
    visibility: hidden;
}
/* End Tabler Icons Cleanup */
</style>
<g transform="translate(30, 0)" class="layer-alpha">
<text x="0" y="28" class="label">alpha:</text>
<g transform="translate(0, 56)">
<g transform="translate(56, 29)" class="key ghost keypos-0">
<rect rx="6" ry="6" x="-54" y="-26" width="108" height="52" class="key ghost"/>
<text x="0" y="0" class="key ghost tap">Alphas</text>
<text x="0" y="24" class="key ghost hold"><tspan style="font-size: 78%">Shift/HRM</tspan></text>
<text x="0" y="-24" class="key ghost shifted">symbols</text>
</g>
<g transform="translate(196, 49)" class="key keypos-1">
<rect rx="6" ry="6" x="-26" y="-26" width="52" height="52" class="key"/>
<text x="0" y="0" class="key tap">W</text>
<use href="#mdi:arrow-left" xlink:href="#mdi:arrow-left" x="-5" y="-24" height="10" width="10.0" class="key shifted glyph mdi:arrow-left"/>
</g>
<g transform="translate(252, 35)" class="key keypos-2">
<rect rx="6" ry="6" x="-26" y="-26" width="52" height="52" class="key"/>
<text x="0" y="0" class="key tap">F</text>
<use href="#mdi:arrow-up" xlink:href="#mdi:arrow-up" x="-5" y="-24" height="10" width="10.0" class="key shifted glyph mdi:arrow-up"/>
</g>
<g transform="translate(308, 28)" class="key keypos-3">
<rect rx="6" ry="6" x="-26" y="-26" width="52" height="52" class="key"/>
<text x="0" y="0" class="key tap">M</text>
<use href="#mdi:arrow-down" xlink:href="#mdi:arrow-down" x="-5" y="-24" height="10" width="10.0" class="key shifted glyph mdi:arrow-down"/>
</g>
<g transform="translate(364, 35)" class="key keypos-4">
<rect rx="6" ry="6" x="-26" y="-26" width="52" height="52" class="key"/>
<text x="0" y="0" class="key tap">P</text>
<use href="#mdi:arrow-right" xlink:href="#mdi:arrow-right" x="-5" y="-24" height="10" width="10.0" class="key shifted glyph mdi:arrow-right"/>
</g>
<g transform="translate(420, 42)" class="key keypos-5">
<rect rx="6" ry="6" x="-26" y="-26" width="52" height="52" class="key"/>
<text x="0" y="0" class="key tap">V</text>
<text x="0" y="-24" class="key shifted">^</text>
</g>
<g transform="translate(644, 42)" class="key keypos-6">
<rect rx="6" ry="6" x="-26" y="-26" width="52" height="52" class="key"/>
<text x="0" y="0" class="key tap">&#x27;</text>
<text x="0" y="24" class="key hold">&quot;</text>
<text x="0" y="-24" class="key shifted">`</text>
</g>
<g transform="translate(700, 35)" class="key keypos-7">
<rect rx="6" ry="6" x="-26" y="-26" width="52" height="52" class="key"/>
<text x="0" y="0" class="key tap">,</text>
<text x="0" y="24" class="key hold">;</text>
<text x="0" y="-24" class="key shifted">?</text>
</g>
<g transform="translate(756, 28)" class="key keypos-8">
<rect rx="6" ry="6" x="-26" y="-26" width="52" height="52" class="key"/>
<text x="0" y="0" class="key tap">G</text>
</g>
<g transform="translate(812, 35)" class="key keypos-9">
<rect rx="6" ry="6" x="-26" y="-26" width="52" height="52" class="key"/>
<text x="0" y="0" class="key tap">J</text>
</g>
<g transform="translate(868, 49)" class="key keypos-10">
<rect rx="6" ry="6" x="-26" y="-26" width="52" height="52" class="key"/>
<text x="0" y="0" class="key tap">Z</text>
</g>
<g transform="translate(196, 105)" class="key keypos-11">
<rect rx="6" ry="6" x="-26" y="-26" width="52" height="52" class="key"/>
<text x="0" y="0" class="key tap">R</text>
<text x="0" y="24" class="key hold">fn</text>
<text x="0" y="-24" class="key shifted">}{</text>
</g>
<g transform="translate(252, 91)" class="key keypos-12">
<rect rx="6" ry="6" x="-26" y="-26" width="52" height="52" class="key"/>
<text x="0" y="0" class="key tap">S</text>
<use href="#mdi:apple-keyboard-control" xlink:href="#mdi:apple-keyboard-control" x="-6" y="12" height="12" width="12.0" class="key hold glyph mdi:apple-keyboard-control"/>
<text x="0" y="-24" class="key shifted">][</text>
</g>
<g transform="translate(308, 84)" class="key keypos-13">
<rect rx="6" ry="6" x="-26" y="-26" width="52" height="52" class="key"/>
<text x="0" y="0" class="key tap">N</text>
<use href="#mdi:apple-keyboard-option" xlink:href="#mdi:apple-keyboard-option" x="-6" y="12" height="12" width="12.0" class="key hold glyph mdi:apple-keyboard-option"/>
<text x="0" y="-24" class="key shifted">)(</text>
</g>
<g transform="translate(364, 91)" class="key keypos-14">
<rect rx="6" ry="6" x="-26" y="-26" width="52" height="52" class="key"/>
<text x="0" y="0" class="key tap">T</text>
<use href="#mdi:apple-keyboard-command" xlink:href="#mdi:apple-keyboard-command" x="-6" y="12" height="12" width="12.0" class="key hold glyph mdi:apple-keyboard-command"/>
<text x="0" y="-24" class="key shifted">&gt;&lt;</text>
</g>
<g transform="translate(420, 98)" class="key keypos-15">
<rect rx="6" ry="6" x="-26" y="-26" width="52" height="52" class="key"/>
<text x="0" y="0" class="key tap">B</text>
<use href="#mdi:apple-keyboard-shift" xlink:href="#mdi:apple-keyboard-shift" x="-6" y="12" height="12" width="12.0" class="key hold glyph mdi:apple-keyboard-shift"/>
<text x="0" y="-24" class="key shifted">⌦</text>
</g>
<g transform="translate(644, 98)" class="key keypos-16">
<rect rx="6" ry="6" x="-26" y="-26" width="52" height="52" class="key"/>
<text x="0" y="0" class="key tap">./:</text>
<use href="#mdi:apple-keyboard-shift" xlink:href="#mdi:apple-keyboard-shift" x="-6" y="12" height="12" width="12.0" class="key hold glyph mdi:apple-keyboard-shift"/>
<text x="0" y="-24" class="key shifted">!</text>
</g>
<g transform="translate(700, 91)" class="key keypos-17">
<rect rx="6" ry="6" x="-26" y="-26" width="52" height="52" class="key"/>
<text x="0" y="0" class="key tap">A</text>
<use href="#mdi:apple-keyboard-command" xlink:href="#mdi:apple-keyboard-command" x="-6" y="12" height="12" width="12.0" class="key hold glyph mdi:apple-keyboard-command"/>
<text x="0" y="-24" class="key shifted">@</text>
</g>
<g transform="translate(756, 84)" class="key keypos-18">
<rect rx="6" ry="6" x="-26" y="-26" width="52" height="52" class="key"/>
<text x="0" y="0" class="key tap">E</text>
<use href="#mdi:apple-keyboard-option" xlink:href="#mdi:apple-keyboard-option" x="-6" y="12" height="12" width="12.0" class="key hold glyph mdi:apple-keyboard-option"/>
<text x="0" y="-24" class="key shifted">=</text>
</g>
<g transform="translate(812, 91)" class="key keypos-19">
<rect rx="6" ry="6" x="-26" y="-26" width="52" height="52" class="key"/>
<text x="0" y="0" class="key tap">I</text>
<use href="#mdi:apple-keyboard-control" xlink:href="#mdi:apple-keyboard-control" x="-6" y="12" height="12" width="12.0" class="key hold glyph mdi:apple-keyboard-control"/>
<text x="0" y="-24" class="key shifted">&amp;</text>
</g>
<g transform="translate(868, 105)" class="key keypos-20">
<rect rx="6" ry="6" x="-26" y="-26" width="52" height="52" class="key"/>
<text x="0" y="0" class="key tap">H</text>
<text x="0" y="24" class="key hold">fn</text>
<text x="0" y="-24" class="key shifted">#</text>
</g>
<g transform="translate(196, 161)" class="key keypos-21">
<rect rx="6" ry="6" x="-26" y="-26" width="52" height="52" class="key"/>
<text x="0" y="0" class="key tap">X</text>
</g>
<g transform="translate(252, 147)" class="key keypos-22">
<rect rx="6" ry="6" x="-26" y="-26" width="52" height="52" class="key"/>
<text x="0" y="0" class="key tap">C</text>
</g>
<g transform="translate(308, 140)" class="key keypos-23">
<rect rx="6" ry="6" x="-26" y="-26" width="52" height="52" class="key"/>
<text x="0" y="0" class="key tap">L</text>
<text x="0" y="-24" class="key shifted">~</text>
</g>
<g transform="translate(364, 147)" class="key keypos-24">
<rect rx="6" ry="6" x="-26" y="-26" width="52" height="52" class="key"/>
<text x="0" y="0" class="key tap">D</text>
<text x="0" y="-24" class="key shifted">$</text>
</g>
<g transform="translate(420, 154)" class="key keypos-25">
<rect rx="6" ry="6" x="-26" y="-26" width="52" height="52" class="key"/>
<text x="0" y="0" class="key tap">/</text>
<text x="0" y="24" class="key hold">|</text>
<text x="0" y="-24" class="key shifted">\</text>
</g>
<g transform="translate(644, 154)" class="key keypos-26">
<rect rx="6" ry="6" x="-26" y="-26" width="52" height="52" class="key"/>
<text x="0" y="0" class="key tap">-</text>
<text x="0" y="24" class="key hold">_</text>
<text x="0" y="-24" class="key shifted">-</text>
</g>
<g transform="translate(700, 147)" class="key keypos-27">
<rect rx="6" ry="6" x="-26" y="-26" width="52" height="52" class="key"/>
<text x="0" y="0" class="key tap">O</text>
<text x="0" y="-24" class="key shifted">€</text>
</g>
<g transform="translate(756, 140)" class="key keypos-28">
<rect rx="6" ry="6" x="-26" y="-26" width="52" height="52" class="key"/>
<text x="0" y="0" class="key tap">U</text>
</g>
<g transform="translate(812, 147)" class="key keypos-29">
<rect rx="6" ry="6" x="-26" y="-26" width="52" height="52" class="key"/>
<text x="0" y="0" class="key tap">Y</text>
</g>
<g transform="translate(868, 161)" class="key keypos-30">
<rect rx="6" ry="6" x="-26" y="-26" width="52" height="52" class="key"/>
<text x="0" y="0" class="key tap">K</text>
</g>
<g transform="translate(386, 212) rotate(9.0)" class="key keypos-31">
<rect rx="6" ry="6" x="-40" y="-26" width="80" height="52" class="key"/>
<text x="0" y="0" class="key tap">
<tspan x="0" dy="-1.2em">⌫</tspan><tspan x="0" dy="1.2em">Word</tspan>
</text>
<text x="0" y="24" class="key hold"><tspan style="font-size: 70%">mo_numbers</tspan></text>
</g>
<g transform="translate(457, 232) rotate(25.5)" class="key held keypos-32">
<rect rx="6" ry="6" x="-26" y="-26" width="52" height="52" class="key held"/>
<use href="#tabler:repeat" xlink:href="#tabler:repeat" x="-7" y="-7" height="14" width="14.0" class="key held tap glyph tabler:repeat"/>
<text x="0" y="24" class="key held hold"><tspan style="font-size: 70%">mo_symbols</tspan></text>
</g>
<g transform="translate(611, 233) rotate(-23.0)" class="key keypos-33">
<rect rx="6" ry="6" x="-26" y="-26" width="52" height="52" class="key"/>
<text x="0" y="0" class="key tap">⌴</text>
<text x="0" y="24" class="key hold"><tspan style="font-size: 88%">mo_CHORD</tspan></text>
</g>
<g transform="translate(681, 212) rotate(-12.0)" class="key keypos-34">
<rect rx="6" ry="6" x="-40" y="-26" width="80" height="52" class="key"/>
<use href="#tabler:arrow-back" xlink:href="#tabler:arrow-back" x="-7" y="-7" height="14" width="14.0" class="key tap glyph tabler:arrow-back"/>
<text x="0" y="24" class="key hold">mo_CMD</text>
</g>
<g class="combo combopos-0">
<rect rx="6" ry="6" x="210" y="29" width="28" height="26" class="combo"/>
<text x="224" y="42" class="combo tap">Qu</text>
</g>
<g class="combo combopos-1">
<path d="M560,62 h-302 a6.0,6.0 0 0 0 -6.0,6.0 v4" class="combo"/>
<path d="M560,62 h302 a6.0,6.0 0 0 1 6.0,6.0 v18" class="combo"/>
<rect rx="6" ry="6" x="546" y="49" width="28" height="26" class="combo"/>
<text x="560" y="62" class="combo tap">sch</text>
</g>
<g class="combo combopos-2">
<rect rx="6" ry="6" x="706" y="76" width="28" height="26" class="combo"/>
<text x="720" y="89" class="combo tap">ä</text>
<text x="720" y="78" class="combo shifted">Ä</text>
</g>
<g class="combo combopos-3">
<path d="M777,133 v1 a6.0,6.0 0 0 1 -6.0,6.0 h-3" class="combo"/>
<path d="M777,133 v-43 a6.0,6.0 0 0 0 -6.0,-6.0 h4" class="combo"/>
<rect rx="6" ry="6" x="763" y="120" width="28" height="26" class="combo"/>
<text x="777" y="133" class="combo tap">ö</text>
<text x="777" y="122" class="combo shifted">Ü</text>
</g>
<g class="combo combopos-4">
<path d="M723,139 v2 a6.0,6.0 0 0 1 -6.0,6.0 h-6" class="combo"/>
<path d="M723,139 v-49 a6.0,6.0 0 0 1 6.0,-6.0 h8" class="combo"/>
<rect rx="6" ry="6" x="709" y="126" width="28" height="26" class="combo"/>
<text x="723" y="139" class="combo tap">ü</text>
<text x="723" y="128" class="combo shifted">Ü</text>
</g>
<g class="combo combopos-5">
<path d="M270,91 l468,-6" class="combo"/>
<rect rx="6" ry="6" x="256" y="78" width="28" height="26" class="combo"/>
<text x="270" y="91" class="combo tap">ß</text>
</g>
<g class="combo combopos-6">
<path d="M532,98 l-93,0" class="combo"/>
<path d="M532,98 l93,0" class="combo"/>
<rect rx="6" ry="6" x="518" y="85" width="28" height="26" class="combo"/>
<text x="532" y="98" class="combo tap">CapsW</text>
</g>
<g class="combo combopos-7">
<path d="M499,183 h-107 a6.0,6.0 0 0 0 -6.0,6.0 v4" class="combo"/>
<path d="M499,183 h107 a6.0,6.0 0 0 1 6.0,6.0 v25" class="combo"/>
<rect rx="6" ry="6" x="485" y="170" width="28" height="26" class="combo"/>
<use href="#tabler:backspace" xlink:href="#tabler:backspace" x="492" y="176" height="14" width="14.0" class="combo tap glyph tabler:backspace"/>
</g>
<g class="combo combopos-8">
<path d="M611,318 h-148 a6.0,6.0 0 0 1 -6.0,-6.0 v-61" class="combo"/>
<path d="M611,318 l0,-66" class="combo"/>
<rect rx="6" ry="6" x="597" y="305" width="28" height="26" class="combo"/>
<text x="611" y="318" class="combo tap">
<tspan x="611" dy="-0.6em" style="font-size: 88%">Shift</tspan><tspan x="611" dy="1.2em" style="font-size: 88%">(in_CRD)</tspan>
</text>
</g>
<g class="combo held combopos-9">
<path d="M533,269 h-141 a6.0,6.0 0 0 1 -6.0,-6.0 v-33" class="combo"/>
<path d="M533,269 h141 a6.0,6.0 0 0 0 6.0,-6.0 v-32" class="combo"/>
<rect rx="6" ry="6" x="519" y="256" width="28" height="26" class="combo held"/>
<text x="533" y="269" class="combo held tap">
<tspan x="533" dy="-0.6em">to</tspan><tspan x="533" dy="1.2em">Alp</tspan>
</text>
</g>
<g class="combo combopos-10">
<path d="M533,269 h-141 a6.0,6.0 0 0 1 -6.0,-6.0 v-33" class="combo"/>
<path d="M533,269 h141 a6.0,6.0 0 0 0 6.0,-6.0 v-32" class="combo"/>
<rect rx="6" ry="6" x="519" y="256" width="28" height="26" class="combo"/>
<text x="533" y="269" class="combo tap">
<tspan x="533" dy="-0.6em">to</tspan><tspan x="533" dy="1.2em">Alp</tspan>
</text>
</g>
<g class="combo combopos-11">
<path d="M422,289 h-30 a6.0,6.0 0 0 1 -6.0,-6.0 v-53" class="combo"/>
<path d="M422,289 h30 a6.0,6.0 0 0 0 6.0,-6.0 v-32" class="combo"/>
<rect rx="6" ry="6" x="408" y="276" width="28" height="26" class="combo"/>
<text x="422" y="289" class="combo tap">
<tspan x="422" dy="-0.6em">mo</tspan><tspan x="422" dy="1.2em">CMD</tspan>
</text>
</g>
<g class="combo combopos-12">
<path d="M646,290 h-29 a6.0,6.0 0 0 1 -6.0,-6.0 v-32" class="combo"/>
<path d="M646,290 h29 a6.0,6.0 0 0 0 6.0,-6.0 v-53" class="combo"/>
<rect rx="6" ry="6" x="632" y="277" width="28" height="26" class="combo"/>
<text x="646" y="290" class="combo tap">
<tspan x="646" dy="-0.6em">mo</tspan><tspan x="646" dy="1.2em">FUN</tspan>
</text>
</g>
</g>
</g>
<g transform="translate(30, 381)" class="layer-numbers">
<text x="0" y="28" class="label">numbers:</text>
<g transform="translate(0, 56)">
<g transform="translate(56, 29)" class="key ghost keypos-0">
<rect rx="6" ry="6" x="-54" y="-26" width="108" height="52" class="key ghost"/>
<text x="0" y="0" class="key ghost tap">
<tspan x="0" dy="-0.6em">normal</tspan><tspan x="0" dy="1.2em">tap</tspan>
</text>
<text x="0" y="24" class="key ghost hold"><tspan style="font-size: 60%">shft/functions</tspan></text>
<text x="0" y="-24" class="key ghost shifted"><tspan style="font-size: 88%">commands</tspan></text>
</g>
<g transform="translate(196, 49)" class="key keypos-1">
<rect rx="6" ry="6" x="-26" y="-26" width="52" height="52" class="key"/>
<text x="0" y="0" class="key tap">*</text>
<text x="0" y="24" class="key hold">/</text>
<text x="0" y="-24" class="key shifted"><tspan style="font-size: 88%">find all</tspan></text>
</g>
<g transform="translate(252, 35)" class="key keypos-2">
<rect rx="6" ry="6" x="-26" y="-26" width="52" height="52" class="key"/>
<text x="0" y="0" class="key tap">9</text>
<text x="0" y="-24" class="key shifted">find</text>
</g>
<g transform="translate(308, 28)" class="key keypos-3">
<rect rx="6" ry="6" x="-26" y="-26" width="52" height="52" class="key"/>
<text x="0" y="0" class="key tap">8</text>
<text x="0" y="-24" class="key shifted">redo</text>
</g>
<g transform="translate(364, 35)" class="key keypos-4">
<rect rx="6" ry="6" x="-26" y="-26" width="52" height="52" class="key"/>
<text x="0" y="0" class="key tap">7</text>
<text x="0" y="-24" class="key shifted">undo</text>
</g>
<g transform="translate(420, 42)" class="key keypos-5">
<rect rx="6" ry="6" x="-26" y="-26" width="52" height="52" class="key"/>
<text x="0" y="0" class="key tap">,</text>
<text x="0" y="-24" class="key shifted"><tspan style="font-size: 70%">switch app</tspan></text>
</g>
<g transform="translate(644, 42)" class="key keypos-6">
<rect rx="6" ry="6" x="-26" y="-26" width="52" height="52" class="key"/>
<text x="0" y="0" class="key tap">&#x27;</text>
<use href="#mdi:volume-minus" xlink:href="#mdi:volume-minus" x="-5" y="-24" height="10" width="10.0" class="key shifted glyph mdi:volume-minus"/>
</g>
<g transform="translate(700, 35)" class="key keypos-7">
<rect rx="6" ry="6" x="-26" y="-26" width="52" height="52" class="key"/>
<text x="0" y="0" class="key tap">!</text>
<use href="#mdi:volume-mute" xlink:href="#mdi:volume-mute" x="-5" y="-24" height="10" width="10.0" class="key shifted glyph mdi:volume-mute"/>
</g>
<g transform="translate(756, 28)" class="key keypos-8">
<rect rx="6" ry="6" x="-26" y="-26" width="52" height="52" class="key"/>
<use href="#mdi:volume-plus" xlink:href="#mdi:volume-plus" x="-5" y="-24" height="10" width="10.0" class="key shifted glyph mdi:volume-plus"/>
</g>
<g transform="translate(812, 35)" class="key keypos-9">
<rect rx="6" ry="6" x="-26" y="-26" width="52" height="52" class="key"/>
<text x="0" y="0" class="key tap">°</text>
<use href="#mdi:lightbulb-on-70" xlink:href="#mdi:lightbulb-on-70" x="-5" y="-24" height="10" width="10.0" class="key shifted glyph mdi:lightbulb-on-70"/>
</g>
<g transform="translate(868, 49)" class="key keypos-10">
<rect rx="6" ry="6" x="-26" y="-26" width="52" height="52" class="key"/>
<text x="0" y="0" class="key tap">∑</text>
<use href="#mdi:lightbulb-on-40" xlink:href="#mdi:lightbulb-on-40" x="-5" y="-24" height="10" width="10.0" class="key shifted glyph mdi:lightbulb-on-40"/>
</g>
<g transform="translate(196, 105)" class="key keypos-11">
<rect rx="6" ry="6" x="-26" y="-26" width="52" height="52" class="key"/>
<text x="0" y="0" class="key tap">+</text>
<text x="0" y="24" class="key hold">-</text>
<text x="0" y="-24" class="key shifted"><tspan style="font-size: 70%">select all</tspan></text>
</g>
<g transform="translate(252, 91)" class="key keypos-12">
<rect rx="6" ry="6" x="-26" y="-26" width="52" height="52" class="key"/>
<text x="0" y="0" class="key tap">3</text>
<use href="#mdi:content-cut" xlink:href="#mdi:content-cut" x="-5" y="-24" height="10" width="10.0" class="key shifted glyph mdi:content-cut"/>
</g>
<g transform="translate(308, 84)" class="key keypos-13">
<rect rx="6" ry="6" x="-26" y="-26" width="52" height="52" class="key"/>
<text x="0" y="0" class="key tap">2</text>
<use href="#mdi:content-copy" xlink:href="#mdi:content-copy" x="-5" y="-24" height="10" width="10.0" class="key shifted glyph mdi:content-copy"/>
</g>
<g transform="translate(364, 91)" class="key keypos-14">
<rect rx="6" ry="6" x="-26" y="-26" width="52" height="52" class="key"/>
<text x="0" y="0" class="key tap">1</text>
<use href="#mdi:content-paste" xlink:href="#mdi:content-paste" x="-5" y="-24" height="10" width="10.0" class="key shifted glyph mdi:content-paste"/>
</g>
<g transform="translate(420, 98)" class="key keypos-15">
<rect rx="6" ry="6" x="-26" y="-26" width="52" height="52" class="key"/>
<text x="0" y="0" class="key tap">0</text>
<text x="0" y="-24" class="key shifted"><tspan style="font-size: 70%">paste hist</tspan></text>
</g>
<g transform="translate(644, 98)" class="key keypos-16">
<rect rx="6" ry="6" x="-26" y="-26" width="52" height="52" class="key"/>
<text x="0" y="0" class="key tap">§</text>
<text x="0" y="-24" class="key shifted"><tspan style="font-size: 60%">desktop left</tspan></text>
</g>
<g transform="translate(700, 91)" class="key keypos-17">
<rect rx="6" ry="6" x="-26" y="-26" width="52" height="52" class="key"/>
<text x="0" y="0" class="key tap">%</text>
<text x="0" y="-24" class="key shifted"><tspan style="font-size: 88%">win left</tspan></text>
</g>
<g transform="translate(756, 84)" class="key keypos-18">
<rect rx="6" ry="6" x="-26" y="-26" width="52" height="52" class="key"/>
<text x="0" y="0" class="key tap">≤</text>
<text x="0" y="-24" class="key shifted"><tspan style="font-size: 70%">win middle</tspan></text>
</g>
<g transform="translate(812, 91)" class="key keypos-19">
<rect rx="6" ry="6" x="-26" y="-26" width="52" height="52" class="key"/>
<text x="0" y="0" class="key tap">≥</text>
<text x="0" y="-24" class="key shifted"><tspan style="font-size: 78%">win right</tspan></text>
</g>
<g transform="translate(868, 105)" class="key keypos-20">
<rect rx="6" ry="6" x="-26" y="-26" width="52" height="52" class="key"/>
<text x="0" y="0" class="key tap">#</text>
<text x="0" y="-24" class="key shifted"><tspan style="font-size: 60%">desktop right</tspan></text>
</g>
<g transform="translate(196, 161)" class="key keypos-21">
<rect rx="6" ry="6" x="-26" y="-26" width="52" height="52" class="key"/>
<text x="0" y="0" class="key tap">=</text>
<text x="0" y="24" class="key hold">^</text>
<text x="0" y="-24" class="key shifted"><tspan style="font-size: 78%">find prev</tspan></text>
</g>
<g transform="translate(252, 147)" class="key keypos-22">
<rect rx="6" ry="6" x="-26" y="-26" width="52" height="52" class="key"/>
<text x="0" y="0" class="key tap">6</text>
<text x="0" y="-24" class="key shifted"><tspan style="font-size: 78%">find next</tspan></text>
</g>
<g transform="translate(308, 140)" class="key keypos-23">
<rect rx="6" ry="6" x="-26" y="-26" width="52" height="52" class="key"/>
<text x="0" y="0" class="key tap">5</text>
<text x="0" y="-24" class="key shifted">Enter</text>
</g>
<g transform="translate(364, 147)" class="key keypos-24">
<rect rx="6" ry="6" x="-26" y="-26" width="52" height="52" class="key"/>
<text x="0" y="0" class="key tap">4</text>
<use href="#mdi:keyboard-tab" xlink:href="#mdi:keyboard-tab" x="-5" y="-24" height="10" width="10.0" class="key shifted glyph mdi:keyboard-tab"/>
</g>
<g transform="translate(420, 154)" class="key keypos-25">
<rect rx="6" ry="6" x="-26" y="-26" width="52" height="52" class="key"/>
<text x="0" y="0" class="key tap">.</text>
<text x="0" y="-24" class="key shifted"><tspan style="font-size: 70%">switch win</tspan></text>
</g>
<g transform="translate(644, 154)" class="key keypos-26">
<rect rx="6" ry="6" x="-26" y="-26" width="52" height="52" class="key"/>
<text x="0" y="0" class="key tap">_</text>
<use href="#mdi:keyboard-esc" xlink:href="#mdi:keyboard-esc" x="-5" y="-24" height="10" width="10.0" class="key shifted glyph mdi:keyboard-esc"/>
</g>
<g transform="translate(700, 147)" class="key keypos-27">
<rect rx="6" ry="6" x="-26" y="-26" width="52" height="52" class="key"/>
<text x="0" y="0" class="key tap">µ</text>
<use href="#mdi:skip-previous" xlink:href="#mdi:skip-previous" x="-5" y="-24" height="10" width="10.0" class="key shifted glyph mdi:skip-previous"/>
</g>
<g transform="translate(756, 140)" class="key keypos-28">
<rect rx="6" ry="6" x="-26" y="-26" width="52" height="52" class="key"/>
<text x="0" y="0" class="key tap">±</text>
<use href="#mdi:play-pause" xlink:href="#mdi:play-pause" x="-5" y="-24" height="10" width="10.0" class="key shifted glyph mdi:play-pause"/>
</g>
<g transform="translate(812, 147)" class="key keypos-29">
<rect rx="6" ry="6" x="-26" y="-26" width="52" height="52" class="key"/>
<text x="0" y="0" class="key tap">≈</text>
<use href="#mdi:skip-next" xlink:href="#mdi:skip-next" x="-5" y="-24" height="10" width="10.0" class="key shifted glyph mdi:skip-next"/>
</g>
<g transform="translate(868, 161)" class="key keypos-30">
<rect rx="6" ry="6" x="-26" y="-26" width="52" height="52" class="key"/>
<text x="0" y="0" class="key tap">≠</text>
</g>
<g transform="translate(386, 212) rotate(9.0)" class="key held keypos-31">
<rect rx="6" ry="6" x="-40" y="-26" width="80" height="52" class="key held"/>
<use href="#tabler:repeat" xlink:href="#tabler:repeat" x="-7" y="-7" height="14" width="14.0" class="key held tap glyph tabler:repeat"/>
<text x="0" y="24" class="key held hold"><tspan style="font-size: 70%">mo_numbers</tspan></text>
</g>
<g transform="translate(457, 232) rotate(25.5)" class="key trans keypos-32">
<rect rx="6" ry="6" x="-26" y="-26" width="52" height="52" class="key trans"/>
<text x="0" y="0" class="key trans tap">mo_CMD</text>
<text x="0" y="24" class="key trans hold"><tspan style="font-size: 70%">mo_symbols</tspan></text>
</g>
<g transform="translate(611, 233) rotate(-23.0)" class="key trans keypos-33">
<rect rx="6" ry="6" x="-26" y="-26" width="52" height="52" class="key trans"/>
<text x="0" y="0" class="key trans tap">⌴</text>
<text x="0" y="24" class="key trans hold"><tspan style="font-size: 88%">mo_CHORD</tspan></text>
</g>
<g transform="translate(681, 212) rotate(-12.0)" class="key trans keypos-34">
<rect rx="6" ry="6" x="-40" y="-26" width="80" height="52" class="key trans"/>
<text x="0" y="0" class="key trans tap">to_ALP</text>
<text x="0" y="24" class="key trans hold">mo_CMD</text>
</g>
<g class="combo combopos-0">
<path d="M532,98 l-93,0" class="combo"/>
<path d="M532,98 l93,0" class="combo"/>
<rect rx="6" ry="6" x="518" y="85" width="28" height="26" class="combo"/>
<text x="532" y="98" class="combo tap">CapsW</text>
</g>
<g class="combo combopos-1">
<path d="M499,183 h-107 a6.0,6.0 0 0 0 -6.0,6.0 v4" class="combo"/>
<path d="M499,183 h107 a6.0,6.0 0 0 1 6.0,6.0 v25" class="combo"/>
<rect rx="6" ry="6" x="485" y="170" width="28" height="26" class="combo"/>
<use href="#tabler:backspace" xlink:href="#tabler:backspace" x="492" y="176" height="14" width="14.0" class="combo tap glyph tabler:backspace"/>
</g>
<g class="combo combopos-2">
<path d="M533,269 h-141 a6.0,6.0 0 0 1 -6.0,-6.0 v-33" class="combo"/>
<path d="M533,269 h141 a6.0,6.0 0 0 0 6.0,-6.0 v-32" class="combo"/>
<rect rx="6" ry="6" x="519" y="256" width="28" height="26" class="combo"/>
<text x="533" y="269" class="combo tap">
<tspan x="533" dy="-0.6em">to</tspan><tspan x="533" dy="1.2em">Alp</tspan>
</text>
</g>
<g class="combo combopos-3">
<path d="M422,289 h-30 a6.0,6.0 0 0 1 -6.0,-6.0 v-53" class="combo"/>
<path d="M422,289 h30 a6.0,6.0 0 0 0 6.0,-6.0 v-32" class="combo"/>
<rect rx="6" ry="6" x="408" y="276" width="28" height="26" class="combo"/>
<text x="422" y="289" class="combo tap">
<tspan x="422" dy="-0.6em">mo</tspan><tspan x="422" dy="1.2em">CMD</tspan>
</text>
</g>
<g class="combo combopos-4">
<path d="M646,290 h-29 a6.0,6.0 0 0 1 -6.0,-6.0 v-32" class="combo"/>
<path d="M646,290 h29 a6.0,6.0 0 0 0 6.0,-6.0 v-53" class="combo"/>
<rect rx="6" ry="6" x="632" y="277" width="28" height="26" class="combo"/>
<text x="646" y="290" class="combo tap">
<tspan x="646" dy="-0.6em">mo</tspan><tspan x="646" dy="1.2em">FUN</tspan>
</text>
</g>
</g>
</g>
<g transform="translate(30, 735)" class="layer-functions">
<text x="0" y="28" class="label">functions:</text>
<g transform="translate(0, 56)">
<g transform="translate(56, 29)" class="key ghost keypos-0">
<rect rx="6" ry="6" x="-54" y="-26" width="108" height="52" class="key ghost"/>
<text x="0" y="0" class="key ghost tap">
<tspan x="0" dy="-0.6em">normal</tspan><tspan x="0" dy="1.2em">tap</tspan>
</text>
</g>
<g transform="translate(196, 49)" class="key keypos-1">
<rect rx="6" ry="6" x="-26" y="-26" width="52" height="52" class="key"/>
<text x="0" y="0" class="key tap">F5</text>
</g>
<g transform="translate(252, 35)" class="key keypos-2">
<rect rx="6" ry="6" x="-26" y="-26" width="52" height="52" class="key"/>
<text x="0" y="0" class="key tap">F4</text>
</g>
<g transform="translate(308, 28)" class="key keypos-3">
<rect rx="6" ry="6" x="-26" y="-26" width="52" height="52" class="key"/>
<text x="0" y="0" class="key tap">F3</text>
</g>
<g transform="translate(364, 35)" class="key keypos-4">
<rect rx="6" ry="6" x="-26" y="-26" width="52" height="52" class="key"/>
<text x="0" y="0" class="key tap">F2</text>
</g>
<g transform="translate(420, 42)" class="key keypos-5">
<rect rx="6" ry="6" x="-26" y="-26" width="52" height="52" class="key"/>
<text x="0" y="0" class="key tap">F1</text>
</g>
<g transform="translate(644, 42)" class="key keypos-6">
<rect rx="6" ry="6" x="-26" y="-26" width="52" height="52" class="key"/>
<text x="0" y="0" class="key tap">BT_1</text>
</g>
<g transform="translate(700, 35)" class="key keypos-7">
<rect rx="6" ry="6" x="-26" y="-26" width="52" height="52" class="key"/>
<text x="0" y="0" class="key tap">BT_2</text>
</g>
<g transform="translate(756, 28)" class="key keypos-8">
<rect rx="6" ry="6" x="-26" y="-26" width="52" height="52" class="key"/>
<text x="0" y="0" class="key tap">BT_3</text>
</g>
<g transform="translate(812, 35)" class="key keypos-9">
<rect rx="6" ry="6" x="-26" y="-26" width="52" height="52" class="key"/>
<text x="0" y="0" class="key tap">BT_4</text>
</g>
<g transform="translate(868, 49)" class="key keypos-10">
<rect rx="6" ry="6" x="-26" y="-26" width="52" height="52" class="key"/>
<text x="0" y="0" class="key tap">BT_5</text>
</g>
<g transform="translate(196, 105)" class="key keypos-11">
<rect rx="6" ry="6" x="-26" y="-26" width="52" height="52" class="key"/>
<text x="0" y="0" class="key tap">F10</text>
</g>
<g transform="translate(252, 91)" class="key keypos-12">
<rect rx="6" ry="6" x="-26" y="-26" width="52" height="52" class="key"/>
<text x="0" y="0" class="key tap">F9</text>
</g>
<g transform="translate(308, 84)" class="key keypos-13">
<rect rx="6" ry="6" x="-26" y="-26" width="52" height="52" class="key"/>
<text x="0" y="0" class="key tap">F8</text>
</g>
<g transform="translate(364, 91)" class="key keypos-14">
<rect rx="6" ry="6" x="-26" y="-26" width="52" height="52" class="key"/>
<text x="0" y="0" class="key tap">F7</text>
</g>
<g transform="translate(420, 98)" class="key keypos-15">
<rect rx="6" ry="6" x="-26" y="-26" width="52" height="52" class="key"/>
<text x="0" y="0" class="key tap">F6</text>
</g>
<g transform="translate(644, 98)" class="key keypos-16">
<rect rx="6" ry="6" x="-26" y="-26" width="52" height="52" class="key"/>
</g>
<g transform="translate(700, 91)" class="key keypos-17">
<rect rx="6" ry="6" x="-26" y="-26" width="52" height="52" class="key"/>
<text x="0" y="0" class="key tap">F16</text>
</g>
<g transform="translate(756, 84)" class="key keypos-18">
<rect rx="6" ry="6" x="-26" y="-26" width="52" height="52" class="key"/>
<text x="0" y="0" class="key tap">F17</text>
</g>
<g transform="translate(812, 91)" class="key keypos-19">
<rect rx="6" ry="6" x="-26" y="-26" width="52" height="52" class="key"/>
<text x="0" y="0" class="key tap">F18</text>
</g>
<g transform="translate(868, 105)" class="key keypos-20">
<rect rx="6" ry="6" x="-26" y="-26" width="52" height="52" class="key"/>
<text x="0" y="0" class="key tap">F19</text>
</g>
<g transform="translate(196, 161)" class="key keypos-21">
<rect rx="6" ry="6" x="-26" y="-26" width="52" height="52" class="key"/>
<text x="0" y="0" class="key tap">F15</text>
</g>
<g transform="translate(252, 147)" class="key keypos-22">
<rect rx="6" ry="6" x="-26" y="-26" width="52" height="52" class="key"/>
<text x="0" y="0" class="key tap">F14</text>
</g>
<g transform="translate(308, 140)" class="key keypos-23">
<rect rx="6" ry="6" x="-26" y="-26" width="52" height="52" class="key"/>
<text x="0" y="0" class="key tap">F13</text>
</g>
<g transform="translate(364, 147)" class="key keypos-24">
<rect rx="6" ry="6" x="-26" y="-26" width="52" height="52" class="key"/>
<text x="0" y="0" class="key tap">F12</text>
</g>
<g transform="translate(420, 154)" class="key keypos-25">
<rect rx="6" ry="6" x="-26" y="-26" width="52" height="52" class="key"/>
<text x="0" y="0" class="key tap">F11</text>
</g>
<g transform="translate(644, 154)" class="key keypos-26">
<rect rx="6" ry="6" x="-26" y="-26" width="52" height="52" class="key"/>
<text x="0" y="0" class="key tap">BT_CLR</text>
</g>
<g transform="translate(700, 147)" class="key keypos-27">
<rect rx="6" ry="6" x="-26" y="-26" width="52" height="52" class="key"/>
<text x="0" y="0" class="key tap">OUT_BT</text>
</g>
<g transform="translate(756, 140)" class="key keypos-28">
<rect rx="6" ry="6" x="-26" y="-26" width="52" height="52" class="key"/>
<text x="0" y="0" class="key tap">OUT_USB</text>
</g>
<g transform="translate(812, 147)" class="key keypos-29">
<rect rx="6" ry="6" x="-26" y="-26" width="52" height="52" class="key"/>
</g>
<g transform="translate(868, 161)" class="key keypos-30">
<rect rx="6" ry="6" x="-26" y="-26" width="52" height="52" class="key"/>
</g>
<g transform="translate(386, 212) rotate(9.0)" class="key keypos-31">
<rect rx="6" ry="6" x="-40" y="-26" width="80" height="52" class="key"/>
<text x="0" y="0" class="key tap">
<tspan x="0" dy="-1.2em">⌫</tspan><tspan x="0" dy="1.2em">Word</tspan>
</text>
<text x="0" y="24" class="key hold"><tspan style="font-size: 70%">mo_numbers</tspan></text>
</g>
<g transform="translate(457, 232) rotate(25.5)" class="key keypos-32">
<rect rx="6" ry="6" x="-26" y="-26" width="52" height="52" class="key"/>
<use href="#tabler:repeat" xlink:href="#tabler:repeat" x="-7" y="-7" height="14" width="14.0" class="key tap glyph tabler:repeat"/>
<text x="0" y="24" class="key hold"><tspan style="font-size: 70%">mo_symbols</tspan></text>
</g>
<g transform="translate(611, 233) rotate(-23.0)" class="key held keypos-33">
<rect rx="6" ry="6" x="-26" y="-26" width="52" height="52" class="key held"/>
<text x="0" y="0" class="key held tap">mo_FUN</text>
</g>
<g transform="translate(681, 212) rotate(-12.0)" class="key held keypos-34">
<rect rx="6" ry="6" x="-40" y="-26" width="80" height="52" class="key held"/>
<text x="0" y="0" class="key held tap">mo_FUN</text>
</g>
<g class="combo combopos-0">
<path d="M560,94 l-121,3" class="combo"/>
<path d="M560,94 l121,-3" class="combo"/>
<rect rx="6" ry="6" x="546" y="82" width="28" height="26" class="combo"/>
<use href="#mdi:sleep" xlink:href="#mdi:sleep" x="553" y="88" height="14" width="14.0" class="combo tap glyph mdi:sleep"/>
</g>
<g class="combo combopos-1">
<path d="M560,128 h-190 a6.0,6.0 0 0 1 -6.0,-6.0 v-13" class="combo"/>
<path d="M560,128 h190 a6.0,6.0 0 0 0 6.0,-6.0 v-20" class="combo"/>
<rect rx="6" ry="6" x="546" y="115" width="28" height="26" class="combo"/>
<use href="#mdi:lock" xlink:href="#mdi:lock" x="553" y="121" height="14" width="14.0" class="combo tap glyph mdi:lock"/>
</g>
<g class="combo combopos-2">
<path d="M560,162 h-246 a6.0,6.0 0 0 1 -6.0,-6.0 v-53" class="combo"/>
<path d="M560,162 h246 a6.0,6.0 0 0 0 6.0,-6.0 v-46" class="combo"/>
<rect rx="6" ry="6" x="546" y="149" width="28" height="26" class="combo"/>
<use href="#mdi:keyboard-off" xlink:href="#mdi:keyboard-off" x="553" y="155" height="14" width="14.0" class="combo tap glyph mdi:keyboard-off"/>
</g>
<g class="combo combopos-3">
<path d="M422,289 h-30 a6.0,6.0 0 0 1 -6.0,-6.0 v-53" class="combo"/>
<path d="M422,289 h30 a6.0,6.0 0 0 0 6.0,-6.0 v-32" class="combo"/>
<rect rx="6" ry="6" x="408" y="276" width="28" height="26" class="combo"/>
<text x="422" y="289" class="combo tap">
<tspan x="422" dy="-0.6em">mo</tspan><tspan x="422" dy="1.2em">CMD</tspan>
</text>
</g>
<g class="combo combopos-4">
<path d="M422,289 h-30 a6.0,6.0 0 0 1 -6.0,-6.0 v-53" class="combo"/>
<path d="M422,289 h30 a6.0,6.0 0 0 0 6.0,-6.0 v-32" class="combo"/>
<rect rx="6" ry="6" x="408" y="276" width="28" height="26" class="combo"/>
<text x="422" y="289" class="combo tap">
<tspan x="422" dy="-0.6em">mo</tspan><tspan x="422" dy="1.2em">CMD</tspan>
</text>
</g>
<g class="combo combopos-5">
<path d="M646,290 h-29 a6.0,6.0 0 0 1 -6.0,-6.0 v-32" class="combo"/>
<path d="M646,290 h29 a6.0,6.0 0 0 0 6.0,-6.0 v-53" class="combo"/>
<rect rx="6" ry="6" x="632" y="277" width="28" height="26" class="combo"/>
<text x="646" y="290" class="combo tap">
<tspan x="646" dy="-0.6em">mo</tspan><tspan x="646" dy="1.2em">FUN</tspan>
</text>
</g>
<g class="combo held combopos-6">
<path d="M646,290 h-29 a6.0,6.0 0 0 1 -6.0,-6.0 v-32" class="combo"/>
<path d="M646,290 h29 a6.0,6.0 0 0 0 6.0,-6.0 v-53" class="combo"/>
<rect rx="6" ry="6" x="632" y="277" width="28" height="26" class="combo held"/>
<text x="646" y="290" class="combo held tap">
<tspan x="646" dy="-0.6em">mo</tspan><tspan x="646" dy="1.2em">FUN</tspan>
</text>
</g>
<g class="combo combopos-7">
<rect rx="6" ry="6" x="826" y="141" width="28" height="26" class="combo"/>
<text x="840" y="154" class="combo tap">
<tspan x="840" dy="-0.6em">mo</tspan><tspan x="840" dy="1.2em">DAN</tspan>
</text>
</g>
</g>
</g>
</svg>
